# xmcd
#
# Track frame offsets:
#	150
#	10360
#	23343
#	34613
#	47409
#	59578
#	73848
#	88301
#	97651
#	112284
#	130025
#	141591
#
# Disc length: 2158 seconds
#
# Revision: 0
# Processed by: cddbd v1.5.2PL0 Copyright (c) Steve Scherf et al.
# Submitted via: EasyCDDAExtractor 10.2.0.1
#
DISCID=a3086c0c
DTITLE=Very Be Careful - Salad Buey
DYEAR=2007
DGENRE=National Folk
TTITLE0=Sebastiani
TTITLE1=Mr. Yozo
TTITLE2=Mi Vecina
TTITLE3=Amor Sincero
TTITLE4=Oditos
TTITLE5=El Tigre
TTITLE6=El Puma
TTITLE7=El Maestro
TTITLE8=El Escape
TTITLE9=El Mono
TTITLE10=La Ardillita
TTITLE11=Cleopatra
EXTD=
EXTT0=
EXTT1=
EXTT2=
EXTT3=
EXTT4=
EXTT5=
EXTT6=
EXTT7=
EXTT8=
EXTT9=
EXTT10=
EXTT11=
PLAYORDER=
